<svg id="Group_4" data-name="Group 4" xmlns="http://www.w3.org/2000/svg" xmlns:xlink="http://www.w3.org/1999/xlink" width="440.861" height="726.053" viewBox="0 0 440.861 726.053">
  <defs>
    <clipPath id="clip-path">
      <rect id="Rectangle_16" data-name="Rectangle 16" width="440.861" height="726.053" fill="none" stroke="#fff" stroke-width="1"/>
    </clipPath>
  </defs>
  <g id="Group_3" data-name="Group 3" clip-path="url(#clip-path)">
    <path id="Path_25" data-name="Path 25" d="M381.7,694.888c-78.88-66.114-140.721-161.214-226.072-298.779-4.482-7.2-16.515-26.508-4.534-40.844l1.936-2.354,2.843-1.152C277.955,302.946,287.391,205.72,287.391,177.118c0-83.014-46.7-124.695-85.839-145.134C150.523,4.29,83.693.122,24.485,0,162.365,1.692,210.324,109.784,210.324,193.808c0,67.754-19.724,116.027-60.324,147.541C113.166,369.305,65.434,372.88,27.921,372.88c-10.656,0-19.881-.07-27.921-.21v4.273s57.394,6.121,75.6,29.508c.018.035.052.052.07.087a112.092,112.092,0,0,1,13.411,16.429c17.3,25.044,37.268,56.679,56.574,87.234,19.6,30.973,38.036,60.254,52.441,80.693,80.764,114.946,135.455,135.159,220.509,135.159,8.406,0,15.853-.366,22.253-.977-22.323-5.51-43.059-15.975-59.156-30.188" fill="none" stroke="#fff" stroke-width="1"/>
  </g>
</svg>
