<svg id="Group_165" data-name="Group 165" xmlns="http://www.w3.org/2000/svg" xmlns:xlink="http://www.w3.org/1999/xlink" width="597.559" height="984.12" viewBox="0 0 597.559 984.12">
  <defs>
    <clipPath id="clip-path">
      <rect id="Rectangle_16" data-name="Rectangle 16" width="597.559" height="984.12" fill="#09102e"/>
    </clipPath>
  </defs>
  <g id="Group_3" data-name="Group 3" clip-path="url(#clip-path)">
    <path id="Path_25" data-name="Path 25" d="M517.377,941.878C410.46,852.264,326.638,723.363,210.95,536.9c-6.075-9.762-22.385-35.93-6.146-55.361l2.624-3.191,3.853-1.561C376.751,410.625,389.54,278.84,389.54,240.073c0-112.52-63.3-169.016-116.349-196.72C204.024,5.815,113.441.165,33.188,0,220.075,2.293,285.081,148.8,285.081,262.7c0,91.836-26.735,157.267-81.766,199.982C153.39,500.57,88.692,505.416,37.845,505.416c-14.443,0-26.948-.095-37.845-.284v5.792s77.794,8.3,102.473,40c.024.047.071.071.1.118a151.937,151.937,0,0,1,18.178,22.268c23.449,33.945,50.515,76.825,76.683,118.24,26.57,41.982,51.556,81.671,71.081,109.375,109.47,155.8,183.6,183.2,298.886,183.2,11.394,0,21.488-.5,30.163-1.324-30.257-7.469-58.364-21.653-80.182-40.918" fill="#09102e"/>
  </g>
</svg>
