<svg id="Group_131" data-name="Group 131" xmlns="http://www.w3.org/2000/svg" xmlns:xlink="http://www.w3.org/1999/xlink" width="597.855" height="984.608" viewBox="0 0 597.855 984.608">
  <defs>
    <clipPath id="clip-path">
      <rect id="Rectangle_16" data-name="Rectangle 16" width="597.855" height="984.608" fill="#fff"/>
    </clipPath>
  </defs>
  <g id="Group_3" data-name="Group 3" clip-path="url(#clip-path)">
    <path id="Path_25" data-name="Path 25" d="M517.634,942.345C410.664,852.687,326.8,723.722,211.055,537.168c-6.078-9.767-22.4-35.948-6.149-55.388l2.625-3.193,3.855-1.562c165.552-66.2,178.347-198.047,178.347-236.833,0-112.576-63.335-169.1-116.407-196.818C204.125,5.818,113.5.165,33.2,0c186.98,2.294,252.018,148.879,252.018,262.825,0,91.882-26.748,157.345-81.807,200.081-49.95,37.912-114.68,42.76-165.552,42.76-14.45,0-26.961-.1-37.864-.284v5.795s77.833,8.3,102.524,40.016c.024.047.071.071.1.118a152.011,152.011,0,0,1,18.187,22.279c23.461,33.962,50.54,76.863,76.721,118.3,26.583,42,51.582,81.712,71.116,109.429C378.168,957.2,452.335,984.608,567.677,984.608c11.4,0,21.5-.5,30.178-1.324-30.272-7.473-58.393-21.664-80.222-40.938" fill="#fff"/>
  </g>
</svg>
