<svg xmlns="http://www.w3.org/2000/svg" xmlns:xlink="http://www.w3.org/1999/xlink" width="400.916" height="57.999" viewBox="0 0 400.916 57.999">
  <defs>
    <linearGradient id="linear-gradient" x1="0.5" x2="0.5" y2="1" gradientUnits="objectBoundingBox">
      <stop offset="0" stop-color="#0052ff"/>
      <stop offset="0.488" stop-color="#2a2286"/>
      <stop offset="0.591" stop-color="#292283"/>
      <stop offset="1" stop-color="#182060"/>
    </linearGradient>
  </defs>
  <g id="Group_218" data-name="Group 218" transform="translate(-1342.042 -62.253)">
    <g id="Group_217" data-name="Group 217">
      <path id="Path_31" data-name="Path 31" d="M107.228,58.713h.044l1.74,3.727h-3.376Zm-.01-1.24-3.276,7.743h.509l.972-2.278h3.817l1.061,2.278h1.072l-3.6-7.743Z" transform="translate(1328.75 54.903)" fill="#09102e"/>
      <path id="Path_32" data-name="Path 32" d="M121.172,63.238a2.226,2.226,0,0,0,.087.46,1.389,1.389,0,0,0,.3.523,1.769,1.769,0,0,0,.642.436,2.835,2.835,0,0,0,1.116.183,2.592,2.592,0,0,0,1.4-.332,1.151,1.151,0,0,0,.523-1.047,1.26,1.26,0,0,0-.331-.918,2.817,2.817,0,0,0-.835-.581,8.9,8.9,0,0,0-1.09-.426,6.867,6.867,0,0,1-1.089-.454,2.741,2.741,0,0,1-.835-.664,1.59,1.59,0,0,1-.327-1.053,1.824,1.824,0,0,1,.759-1.527,2.581,2.581,0,0,1,.808-.387,3.529,3.529,0,0,1,.969-.133,3.723,3.723,0,0,1,.936.117,2.751,2.751,0,0,1,.8.343,2.1,2.1,0,0,1,.587.553,1.74,1.74,0,0,1,.3.735h-.754a1.248,1.248,0,0,0-.593-.959,2.328,2.328,0,0,0-1.221-.3,2.551,2.551,0,0,0-.765.1,1.842,1.842,0,0,0-.559.277,1.168,1.168,0,0,0-.344.4,1.1,1.1,0,0,0-.117.5.944.944,0,0,0,.344.763,3.43,3.43,0,0,0,.859.508q.517.221,1.12.42a6.158,6.158,0,0,1,1.12.492,2.907,2.907,0,0,1,.86.73,1.76,1.76,0,0,1,.344,1.123,2.036,2.036,0,0,1-.2.907,1.986,1.986,0,0,1-.565.7,2.634,2.634,0,0,1-.881.442,4,4,0,0,1-1.158.155,4.3,4.3,0,0,1-1.164-.149,3.1,3.1,0,0,1-.925-.42,2.062,2.062,0,0,1-.62-.658,1.854,1.854,0,0,1-.249-.863Z" transform="translate(1326.644 54.922)" fill="#09102e"/>
      <path id="Path_33" data-name="Path 33" d="M136.2,63.239a2.231,2.231,0,0,0,.087.46,1.389,1.389,0,0,0,.3.523,1.768,1.768,0,0,0,.642.436,2.835,2.835,0,0,0,1.116.183,2.591,2.591,0,0,0,1.4-.332,1.149,1.149,0,0,0,.523-1.047,1.26,1.26,0,0,0-.331-.918,2.817,2.817,0,0,0-.835-.581,8.906,8.906,0,0,0-1.09-.426,6.863,6.863,0,0,1-1.089-.454,2.728,2.728,0,0,1-.835-.664,1.586,1.586,0,0,1-.331-1.051,1.824,1.824,0,0,1,.759-1.527,2.582,2.582,0,0,1,.808-.387,3.529,3.529,0,0,1,.969-.133,3.724,3.724,0,0,1,.936.117,2.752,2.752,0,0,1,.8.343,2.1,2.1,0,0,1,.587.553,1.739,1.739,0,0,1,.3.735h-.753a1.249,1.249,0,0,0-.593-.959,2.328,2.328,0,0,0-1.221-.3,2.551,2.551,0,0,0-.765.1,1.842,1.842,0,0,0-.559.277,1.168,1.168,0,0,0-.344.4,1.109,1.109,0,0,0-.117.5.944.944,0,0,0,.344.763,3.429,3.429,0,0,0,.859.508q.517.221,1.12.42a6.159,6.159,0,0,1,1.12.492,2.907,2.907,0,0,1,.86.73,1.76,1.76,0,0,1,.344,1.123,2.037,2.037,0,0,1-.2.907,1.987,1.987,0,0,1-.565.7,2.635,2.635,0,0,1-.881.442,4,4,0,0,1-1.158.155,4.3,4.3,0,0,1-1.164-.149,3.094,3.094,0,0,1-.925-.42,2.062,2.062,0,0,1-.62-.658,1.854,1.854,0,0,1-.249-.863Z" transform="translate(1324.723 54.922)" fill="#09102e"/>
      <path id="Path_34" data-name="Path 34" d="M156.529,57.473v.61h-3.993v2.778h3.428v.508h-3.428v3.242h3.993v.61h-5V57.473Z" transform="translate(1322.665 54.903)" fill="#09102e"/>
      <path id="Path_35" data-name="Path 35" d="M167.963,65.215V58.08H165V57.47h6.935v.611h-2.965v7.135Z" transform="translate(1320.943 54.903)" fill="#09102e"/>
      <path id="Path_36" data-name="Path 36" d="M197.672,64.12h.044l3.584-6.647h.764v7.744h-1.007V58.942h-.044l-3.5,6.4h-.2L193.9,58.9h-.044v6.315h-.486V57.472h.752Z" transform="translate(1317.314 54.903)" fill="#09102e"/>
      <path id="Path_37" data-name="Path 37" d="M213.824,62.938l-.972,2.279h-.509l3.274-7.744h.553l3.605,7.744H218.7l-1.061-2.279Zm1.847-4.225h-.045l-1.592,3.727h3.377Z" transform="translate(1314.889 54.903)" fill="#09102e"/>
      <path id="Path_38" data-name="Path 38" d="M236.617,57.452v7.873h-.055l-6.139-6.05h-.044v5.917h-.509V57.316h.056l6.139,6.05h.044V57.452Z" transform="translate(1312.647 54.923)" fill="#09102e"/>
      <path id="Path_39" data-name="Path 39" d="M248.093,62.938l-.972,2.279h-.509l3.274-7.744h.553l3.605,7.744h-1.073l-1.061-2.279Zm1.847-4.225H249.9L248.3,62.44h3.373Z" transform="translate(1310.507 54.903)" fill="#09102e"/>
      <path id="Path_40" data-name="Path 40" d="M271.087,65.2h-.94v-.453a5.608,5.608,0,0,1-1.064.4,5.451,5.451,0,0,1-1.473.181,4.737,4.737,0,0,1-1.906-.349,3.716,3.716,0,0,1-1.313-.929,3.794,3.794,0,0,1-.764-1.316,4.7,4.7,0,0,1-.249-1.521,4.022,4.022,0,0,1,.32-1.642,3.408,3.408,0,0,1,.9-1.221,4.007,4.007,0,0,1,1.367-.763,5.374,5.374,0,0,1,1.731-.262,4.923,4.923,0,0,1,1.422.183,3.973,3.973,0,0,1,1.012.447,2.642,2.642,0,0,1,.647.57,2.352,2.352,0,0,1,.337.547h-.8a1.092,1.092,0,0,0-.293-.46,2.249,2.249,0,0,0-.581-.4,3.842,3.842,0,0,0-.808-.288,4.156,4.156,0,0,0-.973-.11,3.476,3.476,0,0,0-1.376.254,2.765,2.765,0,0,0-1,.72,3.05,3.05,0,0,0-.61,1.107,4.61,4.61,0,0,0-.2,1.4,4.462,4.462,0,0,0,.208,1.413,3.039,3.039,0,0,0,.649,1.117,2.964,2.964,0,0,0,1.086.736,4.054,4.054,0,0,0,1.53.262,4.125,4.125,0,0,0,1.185-.155,3.971,3.971,0,0,0,1.02-.475V62.188h-1.238v-.454h2.18Z" transform="translate(1308.363 54.922)" fill="#09102e"/>
      <path id="Path_41" data-name="Path 41" d="M286.6,57.473v.61h-3.993v2.778h3.428v.508h-3.428v3.242H286.6v.61h-5V57.473Z" transform="translate(1306.032 54.903)" fill="#09102e"/>
      <path id="Path_42" data-name="Path 42" d="M300.641,64.12h.044l3.584-6.647h.764v7.744h-1.007V58.942h-.044l-3.5,6.406h-.2L296.868,58.9h-.046v6.315h-.486V57.472h.752Z" transform="translate(1304.148 54.903)" fill="#09102e"/>
      <path id="Path_43" data-name="Path 43" d="M321.453,57.473v.61H317.46v2.778h3.428v.508H317.46v3.242h3.992v.61h-5V57.473Z" transform="translate(1301.576 54.903)" fill="#09102e"/>
      <path id="Path_44" data-name="Path 44" d="M337.939,57.452v7.873h-.055l-6.139-6.05H331.7v5.917h-.509V57.316h.056l6.139,6.05h.044V57.452Z" transform="translate(1299.691 54.923)" fill="#09102e"/>
      <path id="Path_45" data-name="Path 45" d="M350.769,65.215V58.08H347.8V57.47h6.935v.611h-2.965v7.135Z" transform="translate(1297.567 54.903)" fill="#09102e"/>
    </g>
    <path id="Path_46" data-name="Path 46" d="M0,17.568c.182-1.04.319-2.093.556-3.117A18.155,18.155,0,0,1,21.413.216c8.111,1.172,13.78,6.994,14.834,15.245.706,5.535-.262,10.707-3.78,15.152-4.394,5.548-10.28,7.608-17.181,6.541C6.769,35.834,1.11,29.74.153,21.174c-.028-.242-.1-.484-.153-.726V17.569m31.34,2.542a26.357,26.357,0,0,0-1.426-8.931A14.548,14.548,0,0,0,24.49,3.616,11.985,11.985,0,0,0,6.509,9.474a22.9,22.9,0,0,0-.98,12.3A20.371,20.371,0,0,0,9.47,31.254C14.493,37.7,25.93,37.907,29.9,28.33A20.573,20.573,0,0,0,31.34,20.11" transform="translate(1342.042 62.252)" fill="url(#linear-gradient)"/>
    <path id="Path_47" data-name="Path 47" d="M123.424,1.219c3.072.206,6.172.216,9.208.665,4.029.6,6.7,3.245,7.281,6.727a9.07,9.07,0,0,1-3.826,9.34,11.7,11.7,0,0,1-1.344.849c-1.428.785-1.441.785-.6,2.174a83.469,83.469,0,0,0,7.39,11.085c.764.905,1.622,1.733,2.462,2.572a6.169,6.169,0,0,0,3.254,1.677,2.545,2.545,0,0,1,.7.407c-.231.15-.448.4-.7.436-3.42.436-6.628-.06-9.07-2.709a43.519,43.519,0,0,1-3.918-5.091c-1.389-2.046-2.667-4.173-3.9-6.319a4.222,4.222,0,0,0-4.058-2.251c-2.415.021-2.417-.021-2.415,2.342,0,2.323,0,4.647.013,6.97,0,.757.031,1.515.082,2.268.143,2.084.7,2.7,2.745,3.059.274.048.549.087.826.116.443.041.709.22.666.717s-.324.594-.774.587q-4.172-.065-8.345-.087c-1.037,0-2.074.041-3.11.087-.412.018-.7-.072-.74-.535a.6.6,0,0,1,.437-.734.6.6,0,0,1,.188-.017c.578-.058,1.152-.155,1.725-.255a2.235,2.235,0,0,0,1.984-2.078,14.875,14.875,0,0,0,.174-1.958q.017-11.932,0-23.865a13.45,13.45,0,0,0-.2-2.26,1.919,1.919,0,0,0-1.9-1.824c-.375-.058-.751-.111-1.128-.153-.441-.05-.872-.074-.876-.7s.4-.658.863-.684q3.447-.195,6.89-.4l.017-.159m.473,10.04h.01c0,2.273.013,4.546-.007,6.817-.006.737.249,1.142,1.039,1.134,1.39-.009,2.791.113,4.169-.009,3.619-.319,5.6-2.146,6.192-5.746a13.444,13.444,0,0,0,.075-3.69,7.351,7.351,0,0,0-6.734-6.708,19.862,19.862,0,0,0-3.181-.034c-1.245.055-1.549.4-1.558,1.641-.015,2.2,0,4.394,0,6.591" transform="translate(1327.307 62.097)" fill="url(#linear-gradient)"/>
    <path id="Path_48" data-name="Path 48" d="M239.057,38.621c-1.57,0-3.134-.008-4.7.005-.413,0-.771-.007-.825-.534-.048-.474.194-.7.636-.767.249-.04.494-.1.74-.165,1.637-.4,2.012-.767,2.022-2.421.03-5.224.008-10.448,0-15.671a5.006,5.006,0,0,0-.124-.972,1.2,1.2,0,0,0-1.119-1.058,4.555,4.555,0,0,1-1.258-.236.871.871,0,0,1-.386-.685.714.714,0,0,1,.471-.523c4.436-.245,8.885-.773,13.3.174,2.286.492,4.065,1.687,4.669,4.12.778,3.14-.523,5.685-3.576,7.086-1.085.5-1.113.586-.523,1.6a35.563,35.563,0,0,0,5.475,7.413,5.713,5.713,0,0,0,3.154,1.831c.181.027.324.291.485.446-.174.152-.332.406-.528.436-2.437.412-4.815.252-6.7-1.508a27.6,27.6,0,0,1-3.241-3.876c-.895-1.221-1.633-2.55-2.442-3.831a2.841,2.841,0,0,0-3.314-1.134.9.9,0,0,0-.447.679c-.015,2.043-.031,4.089.059,6.13.059,1.346.493,1.731,1.837,1.993q.557.109,1.123.174c.443.05.794.162.764.718-.031.576-.4.589-.847.584-1.57-.016-3.133-.006-4.7-.006M240.8,21.875c0,1.308.01,2.623,0,3.936-.007.69.309,1.042,1,1.04.934,0,1.873.045,2.8-.043a3.9,3.9,0,0,0,3.8-3.565c.583-3.357-.993-5.876-4.065-6.408a10.773,10.773,0,0,0-2.268-.072c-.959.039-1.244.362-1.258,1.327-.018,1.261,0,2.523-.005,3.784" transform="translate(1312.18 60.306)" fill="url(#linear-gradient)"/>
    <path id="Path_49" data-name="Path 49" d="M70.4,31.718a7.228,7.228,0,0,0,.156-1.085c-.017-3.558-.036-7.117-.087-10.675a10.49,10.49,0,0,0-.293-2.016,1.952,1.952,0,0,0-1.908-1.647c-.4-.036-.8-.1-1.208-.117-.46-.02-.621-.262-.6-.687.025-.442.262-.59.7-.588q4.055.022,8.111,0c.411,0,.684.165.617.553a1.188,1.188,0,0,1-.491.687,1.708,1.708,0,0,1-.739.113c-1.241.124-1.729.482-1.934,1.725a23.413,23.413,0,0,0-.338,3.686c-.026,5.225.005,10.45.019,15.675a5.322,5.322,0,0,1,.035.979c-.054.277-.209.664-.42.745a.943.943,0,0,1-.812-.262q-6.64-7.381-13.246-14.794c-.842-.94-1.736-1.831-2.616-2.744-.185-.192-.4-.354-.708-.623a4.914,4.914,0,0,0-.142.779q.05,6.359.117,12.718a3.861,3.861,0,0,0,.067.6c.324,1.893.8,2.306,2.7,2.516.478.052,1.266-.191,1.211.724s-.8.568-1.286.572c-2.4.022-4.8.015-7.2.015-.408,0-.909.174-.974-.5-.061-.638.344-.73.848-.785,1.852-.211,2.186-.5,2.451-2.334a24.157,24.157,0,0,0,.237-3.243c.031-3.837.024-7.675.017-11.512,0-2.507-.659-3.323-3.088-3.9-.147-.035-.358-.014-.436-.106a1.789,1.789,0,0,1-.454-.806c-.016-.13.387-.444.6-.447,1.945-.028,3.89-.016,5.834.019a.9.9,0,0,1,.566.366c1.436,1.852,2.751,3.809,4.3,5.561,2.978,3.366,6.092,6.615,9.138,9.921a13.763,13.763,0,0,1,.872,1.149l.382-.225" transform="translate(1335.814 60.347)" fill="url(#linear-gradient)"/>
    <path id="Path_50" data-name="Path 50" d="M103.683,14.975c.184,1.713.379,3.365.515,5.023.017.2-.3.621-.431.61a1.105,1.105,0,0,1-.809-.425,11.274,11.274,0,0,1-.523-1.57,2.468,2.468,0,0,0-2.134-1.819c-2.036-.159-4.083-.179-6.126-.174-.245,0-.7.506-.7.785-.064,2.447-.051,4.9-.056,7.345,0,.472.271.684.725.68,1.366-.011,2.733.022,4.1-.056,1.232-.069,1.661-.488,2.012-1.7a3.887,3.887,0,0,1,.287-1.012,1.132,1.132,0,0,1,.76-.494c.157-.008.482.422.486.658q.056,3.444,0,6.89a.844.844,0,0,1-.517.631.9.9,0,0,1-.714-.436,8.577,8.577,0,0,1-.393-1.379,1.639,1.639,0,0,0-1.5-1.308c-1.512-.087-3.03-.113-4.545-.087a.926.926,0,0,0-.655.626c.017,2.5.049,4.994.192,7.484.058,1.01.538,1.46,1.581,1.522a48.328,48.328,0,0,0,5.6.063,4.409,4.409,0,0,0,3.75-2.928,6.181,6.181,0,0,1,.523-1.169,1.126,1.126,0,0,1,.838-.394c.162.01.466.488.421.7-.368,1.7-.8,3.379-1.216,5.068-.129.53-.523.5-.949.5-4.578-.047-9.157-.094-13.733-.114-1.39-.005-2.781.067-4.171.114-.412.014-.767,0-.814-.538s.21-.72.7-.763a16.452,16.452,0,0,0,1.728-.239,1.63,1.63,0,0,0,1.514-1.629,14.641,14.641,0,0,0,.123-1.812q.016-6.856.005-13.712c0-.252-.008-.5-.025-.757-.153-2.219-.255-2.35-2.425-2.884-.45-.111-.756-.276-.691-.8.063-.5.39-.549.819-.547q8.041.027,16.083.029c.1,0,.2.017.381.034" transform="translate(1331.111 60.343)" fill="url(#linear-gradient)"/>
    <path id="Path_51" data-name="Path 51" d="M222.207,15.362c.174,1.674.364,3.3.5,4.936.017.2-.3.626-.418.61a1.133,1.133,0,0,1-.8-.436,9.879,9.879,0,0,1-.5-1.5,2.54,2.54,0,0,0-2.268-1.864c-1.936-.14-3.882-.138-5.825-.168a.742.742,0,0,0-.778.7.5.5,0,0,0,0,.063c-.015.15-.041.3-.042.452,0,2.2.006,4.392-.008,6.588,0,.63.239.931.9.915,1.213-.031,2.427,0,3.639-.044,1.418-.051,1.867-.427,2.254-1.785a3.422,3.422,0,0,1,.262-.939,1.037,1.037,0,0,1,.722-.436c.167,0,.481.371.484.58q.052,3.443,0,6.89c0,.215-.3.6-.469.6a.96.96,0,0,1-.729-.424,6.149,6.149,0,0,1-.379-1.3,1.674,1.674,0,0,0-1.6-1.382c-1.437-.078-2.878-.087-4.318-.1a.671.671,0,0,0-.747.583.663.663,0,0,0,0,.176c.038,2.3.017,4.594.149,6.885.079,1.388.55,1.848,1.957,1.941a42.031,42.031,0,0,0,5.146.022,4.038,4.038,0,0,0,3.388-2.254c.328-.594.533-1.261.895-1.831a1.119,1.119,0,0,1,.857-.349c.136,0,.415.46.373.657-.358,1.648-.772,3.284-1.174,4.923-.115.469-.42.588-.9.587q-8.837-.027-17.671-.008c-.442,0-.82-.006-.851-.582-.031-.552.312-.662.763-.709.578-.059,1.155-.142,1.726-.246a1.553,1.553,0,0,0,1.367-1.418,14.821,14.821,0,0,0,.147-1.885q.018-6.854.006-13.707c0-.152,0-.3-.009-.454-.087-2.259-.262-2.488-2.442-3.017-.447-.107-.665-.306-.624-.774.044-.515.364-.562.8-.56q7.963.025,15.924.024a2.4,2.4,0,0,1,.3.051" transform="translate(1315.924 60.297)" fill="url(#linear-gradient)"/>
    <path id="Path_52" data-name="Path 52" d="M185.637,32.972c.2-.431.349-.715.47-1.011q2.661-6.521,5.313-13.044a7.891,7.891,0,0,0,.253-.793.912.912,0,0,0-.712-1.269,5.517,5.517,0,0,1-1.094-.286c-.256-.136-.414-.455-.617-.7.242-.2.481-.556.727-.56q3.561-.061,7.124.005a.975.975,0,0,1,.673.6c.051.159-.3.638-.484.649-2.251.139-3.245,1.638-4.025,3.484q-3.918,9.278-7.92,18.52a1.147,1.147,0,0,1-.771.61c-.214.019-.571-.344-.685-.61q-4.1-9.653-8.14-19.329a3.585,3.585,0,0,0-3.086-2.534c-.2-.019-.467-.034-.572-.159a1.357,1.357,0,0,1-.37-.806c0-.157.393-.43.611-.436q4.36-.044,8.721,0c.234,0,.674.349.653.466a1.97,1.97,0,0,1-.511.773c-.048.058-.192.037-.292.053-1.609.238-1.9.643-1.294,2.17,1.068,2.7,2.216,5.367,3.343,8.042.745,1.768,1.511,3.527,2.267,5.289.107.248.232.488.414.872" transform="translate(1320.084 60.298)" fill="url(#linear-gradient)"/>
    <path id="Path_53" data-name="Path 53" d="M158.767,26.946c0-2.3,0-4.593,0-6.89a11.355,11.355,0,0,0-.087-1.511,1.721,1.721,0,0,0-1.6-1.736,12.04,12.04,0,0,0-1.271-.216.628.628,0,0,1-.639-.617.64.64,0,0,1,.016-.153c.036-.461.316-.559.732-.544,1.617.059,3.234.133,4.851.135,1.516,0,3.031-.078,4.547-.13.427-.015.828-.037.865.556.034.523-.242.687-.715.767-2.612.436-2.844.7-2.852,3.314-.014,4.695,0,9.388,0,14.083v.3c.046,2.222.373,2.6,2.557,2.97.174.03.406,0,.51.106a1.454,1.454,0,0,1,.474.711c.061.4-.227.545-.63.543-3.235-.01-6.469.005-9.7-.03a.819.819,0,0,1-.6-.54.878.878,0,0,1,.478-.675,10.963,10.963,0,0,1,1.552-.327,1.628,1.628,0,0,0,1.387-1.5,13.733,13.733,0,0,0,.115-1.583c.011-2.347,0-4.694.005-7.042" transform="translate(1322.2 60.298)" fill="url(#linear-gradient)"/>
    <path id="Path_54" data-name="Path 54" d="M268.474,11.253c0-3.764-.372-6.046-.9-6.788A3.276,3.276,0,0,0,265.5,3.405l-.689-.16c-.214-.106-.214-.689.052-.848,4.4-.265,9.175-.425,12.94-.425a34.958,34.958,0,0,1,12.038,1.7A16.042,16.042,0,0,1,300.5,19.1c0,6.735-3.075,12.674-9.333,15.963-3.447,1.8-8.167,2.492-12.3,2.492-1.538,0-3.075-.106-4.508-.212s-2.651-.212-3.606-.212c-2.863,0-4.985.052-6.681.159-.266-.052-.318-.583-.107-.848l1.326-.266a4.162,4.162,0,0,0,2.492-1.113c.53-.8.69-3.289.69-6.364ZM272.5,27.64c0,2.44.106,5.144,1.007,6.47,1.167,1.591,3.289,2.227,6.364,2.227,10.977,0,15.856-6.841,15.856-17.023,0-5.992-3.076-16.174-17.182-16.121-3.182,0-4.985.372-5.462.8-.424.424-.583,2.227-.583,4.614Z" transform="translate(1308.305 62)" fill="url(#linear-gradient)"/>
    <path id="Path_55" data-name="Path 55" d="M313.535,21.442c0-3.659-.212-3.871-2.492-4.243l-1.008-.159c-.371-.266-.318-1.167.106-1.326,2.069.106,3.713.159,5.41.159s3.341-.053,5.409-.159c.424.159.478,1.06.106,1.326l-1.008.159c-2.281.372-2.492.583-2.492,4.243V33.321c0,3.659.212,3.872,2.492,4.242l1.008.16c.371.265.317,1.167-.106,1.326-2.015-.106-3.766-.159-5.409-.159-1.7,0-3.341.052-5.41.159-.424-.159-.476-1.061-.106-1.326l1.008-.16c2.28-.37,2.492-.583,2.492-4.242Z" transform="translate(1302.429 60.243)" fill="url(#linear-gradient)"/>
    <path id="Path_56" data-name="Path 56" d="M346.964,34.031c0-2.439-.053-2.758-2.439-3.182l-1.7-.318a.888.888,0,0,1,.052-1.326c2.121.106,4.455.159,5.992.159,1.485,0,3.235-.053,4.507-.159a.937.937,0,0,1,.16,1.326l-.955.212c-1.378.318-1.591.637-1.591,2.916v1.485c0,1.272.106,2.068.849,2.439.212.16.212.637-.054.743-.583,0-1.7.317-3.182.583a28.552,28.552,0,0,1-5.3.636c-4.72,0-8.591-1.114-11.4-3.925a11.581,11.581,0,0,1-3.288-8.06,11.841,11.841,0,0,1,3.341-8.326c2.439-2.492,6.046-4.19,11.72-4.19a33.274,33.274,0,0,1,7.106,1.061c.053,1.061.16,3.182.478,5.992a.843.843,0,0,1-1.379.054c-1.379-4.19-3.659-5.569-7.531-5.569-5.569,0-9.015,4.3-9.015,10.5,0,6.524,4.03,10.925,10.447,10.925,2.81,0,3.182-.531,3.182-2.651Z" transform="translate(1300.021 60.328)" fill="url(#linear-gradient)"/>
    <path id="Path_57" data-name="Path 57" d="M365.518,21.442c0-3.659-.212-3.871-2.493-4.243l-1.008-.159c-.371-.266-.317-1.167.106-1.326,2.068.106,3.712.159,5.41.159s3.34-.053,5.409-.159c.424.159.477,1.06.105,1.326l-1.007.159c-2.281.372-2.493.583-2.493,4.243V33.321c0,3.659.212,3.872,2.493,4.242l1.007.16c.371.265.318,1.167-.105,1.326-2.016-.106-3.766-.159-5.409-.159-1.7,0-3.342.052-5.41.159-.424-.159-.477-1.061-.106-1.326l1.008-.16c2.281-.37,2.493-.583,2.493-4.242Z" transform="translate(1295.781 60.243)" fill="url(#linear-gradient)"/>
    <path id="Path_58" data-name="Path 58" d="M388.866,18.642c0-1.379-.053-1.379-1.114-1.379h-1.644c-3.235,0-4.613.318-5.886,3.977a.915.915,0,0,1-1.326-.264c.583-2.28,1.167-4.932,1.432-6.258a.8.8,0,0,1,.955,0c.052,1.061.8,1.007,2.916,1.007h14.743c1.962,0,2.334-.053,2.758-1.007a.708.708,0,0,1,.955.159,22.183,22.183,0,0,0-.531,6.205.85.85,0,0,1-1.325.052c-.372-3.447-1.75-3.871-4.933-3.871h-1.8c-1.007,0-1.167,0-1.167,1.379v14.53c0,3.659.212,3.978,2.493,4.242l1.432.16c.371.265.317,1.167-.106,1.327-2.174-.107-4.19-.16-5.833-.16-1.7,0-3.606.052-5.834.16-.424-.16-.478-1.061-.106-1.327l1.432-.16c2.281-.264,2.492-.583,2.492-4.242Z" transform="translate(1293.592 60.391)" fill="url(#linear-gradient)"/>
    <path id="Path_59" data-name="Path 59" d="M413.568,30.6c-1.22,0-1.379.053-1.8,1.272l-1.221,3.394c-.583,1.7-.424,1.909.583,2.121l1.433.265c.424.265.371,1.22-.16,1.326-1.326-.106-2.7-.16-4.189-.16s-2.758.106-3.713.16a.854.854,0,0,1-.105-1.326l1.219-.265c1.644-.371,2.227-.954,3.288-3.5l5.091-12.2a16.766,16.766,0,0,0,1.379-4.454,4.661,4.661,0,0,0,2.227-2.015c.425-.159.742-.052.848.265.212.531,1.061,3.289,2.28,6.524L425.5,34.68c.637,1.75,1.114,2.44,3.023,2.811l.849.159a.775.775,0,0,1-.159,1.326c-1.379-.106-2.6-.16-4.4-.16-1.91,0-3.447.053-4.773.16a.774.774,0,0,1-.106-1.326l1.061-.159c1.379-.213,1.326-.53.689-2.175l-1.273-3.447c-.424-1.219-.583-1.272-1.8-1.272Zm4.19-1.7c1.378,0,1.538-.106.954-1.644l-1.644-4.507a10.192,10.192,0,0,0-.8-1.909h-.105a11.975,11.975,0,0,0-.849,1.8l-1.908,4.72c-.583,1.432-.478,1.538.689,1.538Z" transform="translate(1290.365 60.316)" fill="url(#linear-gradient)"/>
    <path id="Path_60" data-name="Path 60" d="M439.876,21.442c0-3.659-.212-3.871-2.492-4.243l-1.008-.159c-.371-.266-.318-1.167.105-1.326,2.069.106,3.713.159,5.41.159s3.341-.053,5.091-.159c.425.159.477,1.06.107,1.326l-.69.159c-2.226.53-2.492.583-2.492,4.243v11.4c0,1.644.106,3.128.583,3.659.478.476,1.326.848,4.084.848,3.235,0,5.2-.158,6.734-4.4a.908.908,0,0,1,1.379.213,19.551,19.551,0,0,1-1.591,5.886c-3.34-.106-6.151-.159-8.856-.159h-4.348c-1.7,0-3.341.052-5.41.159-.424-.159-.476-1.061-.105-1.326l1.008-.16c2.28-.37,2.492-.583,2.492-4.242Z" transform="translate(1286.272 60.243)" fill="url(#linear-gradient)"/>
  </g>
</svg>
