<svg xmlns="http://www.w3.org/2000/svg" xmlns:xlink="http://www.w3.org/1999/xlink" width="227.628" height="57.999" viewBox="0 0 227.628 57.999">
  <defs>
    <clipPath id="clip-path">
      <rect id="Rectangle_15" data-name="Rectangle 15" width="227.628" height="57.999" fill="#fff"/>
    </clipPath>
  </defs>
  <g id="Group_2" data-name="Group 2" transform="translate(0 0)">
    <g id="Group_1" data-name="Group 1" transform="translate(0 0)" clip-path="url(#clip-path)">
      <path id="Path_2" data-name="Path 2" d="M0,17.568c.182-1.039.319-2.09.555-3.117A18.155,18.155,0,0,1,21.413.216C29.52,1.388,35.194,7.209,36.247,15.461c.706,5.535-.26,10.707-3.779,15.153-4.394,5.549-10.28,7.608-17.179,6.54C6.768,35.835,1.11,29.737.152,21.174c-.027-.245-.1-.485-.152-.727V17.568M31.34,20.11a26.336,26.336,0,0,0-1.428-8.929,14.549,14.549,0,0,0-5.423-7.565A11.984,11.984,0,0,0,6.509,9.474a22.9,22.9,0,0,0-.98,12.3A20.38,20.38,0,0,0,9.47,31.254C14.493,37.7,25.93,37.907,29.9,28.331a20.583,20.583,0,0,0,1.441-8.22" transform="translate(0 0)" fill="#fff"/>
      <path id="Path_3" data-name="Path 3" d="M154.8,1.551c3.071.206,6.172.216,9.208.665,4.029.6,6.705,3.245,7.281,6.727a9.073,9.073,0,0,1-3.826,9.339,11.681,11.681,0,0,1-1.344.849c-1.428.788-1.441.785-.6,2.174A83.576,83.576,0,0,0,172.9,32.39c.764.9,1.622,1.733,2.462,2.572a6.172,6.172,0,0,0,3.254,1.678,2.549,2.549,0,0,1,.7.407c-.231.15-.448.4-.694.435-3.421.439-6.626-.06-9.069-2.709a43.519,43.519,0,0,1-3.918-5.09c-1.39-2.046-2.667-4.173-3.9-6.319a4.222,4.222,0,0,0-4.058-2.251c-2.415.021-2.417-.021-2.415,2.342,0,2.323,0,4.647.013,6.97,0,.757.03,1.515.082,2.271.143,2.085.7,2.7,2.746,3.06.274.048.549.09.826.116.443.041.709.22.666.717s-.324.594-.774.587q-4.172-.066-8.345-.087c-1.037,0-2.074.041-3.11.086-.412.019-.7-.071-.74-.535a.6.6,0,0,1,.625-.751c.578-.058,1.152-.156,1.725-.255a2.234,2.234,0,0,0,1.984-2.079,14.815,14.815,0,0,0,.169-1.96q.017-11.932,0-23.865a13.5,13.5,0,0,0-.2-2.26,1.922,1.922,0,0,0-1.9-1.825c-.375-.058-.751-.111-1.128-.152-.442-.049-.873-.074-.877-.7s.4-.658.863-.684q3.447-.194,6.892-.4l.016-.159m.473,10.04h.01c0,2.273.013,4.545-.007,6.818-.006.737.25,1.141,1.039,1.137,1.39-.009,2.79.113,4.169-.009,3.619-.319,5.6-2.146,6.19-5.746a13.442,13.442,0,0,0,.075-3.69,7.351,7.351,0,0,0-6.734-6.707,19.86,19.86,0,0,0-3.181-.034c-1.244.055-1.549.4-1.558,1.641-.015,2.2,0,4.394,0,6.591" transform="translate(-46.105 -0.488)" fill="#fff"/>
      <path id="Path_4" data-name="Path 4" d="M302.615,42.765c-1.567,0-3.134-.008-4.7,0-.413,0-.771-.007-.825-.533-.048-.474.193-.694.635-.766.249-.04.494-.1.74-.165,1.637-.4,2.012-.768,2.022-2.421.029-5.224.008-10.448,0-15.672a4.972,4.972,0,0,0-.124-.973,1.2,1.2,0,0,0-1.119-1.058,4.569,4.569,0,0,1-1.259-.237.872.872,0,0,1-.387-.686.715.715,0,0,1,.471-.522c4.436-.245,8.885-.773,13.3.175,2.286.492,4.065,1.686,4.669,4.12.778,3.136-.52,5.685-3.579,7.086-1.085.5-1.113.586-.522,1.6a35.563,35.563,0,0,0,5.476,7.412,5.711,5.711,0,0,0,3.154,1.834c.18.027.324.291.485.446-.175.152-.333.405-.528.438-2.436.412-4.815.252-6.7-1.508a27.6,27.6,0,0,1-3.241-3.875c-.895-1.218-1.632-2.55-2.44-3.832a2.841,2.841,0,0,0-3.311-1.133.9.9,0,0,0-.448.679c-.015,2.044-.03,4.089.059,6.13.059,1.346.493,1.731,1.837,1.993q.557.109,1.123.173c.443.049.795.162.764.718-.031.577-.4.589-.847.584-1.566-.016-3.134-.006-4.7-.006v0m1.743-16.749c0,1.312.01,2.624,0,3.936-.007.69.309,1.042,1,1.04.934,0,1.874.045,2.8-.043a3.9,3.9,0,0,0,3.8-3.565c.583-3.357-.993-5.875-4.065-6.408a10.772,10.772,0,0,0-2.266-.072c-.956.039-1.245.362-1.259,1.327-.019,1.261,0,2.523-.005,3.784" transform="translate(-93.417 -6.09)" fill="#fff"/>
      <path id="Path_5" data-name="Path 5" d="M83.656,35.773a7.212,7.212,0,0,0,.156-1.085c-.016-3.558-.036-7.117-.091-10.675A10.527,10.527,0,0,0,83.429,22a1.952,1.952,0,0,0-1.908-1.647c-.4-.036-.8-.1-1.208-.117-.46-.02-.621-.265-.6-.688.025-.442.261-.59.7-.588q4.056.022,8.111,0c.411,0,.683.165.618.553a1.187,1.187,0,0,1-.491.687,1.707,1.707,0,0,1-.739.112c-1.241.124-1.729.482-1.935,1.725a23.418,23.418,0,0,0-.338,3.686c-.026,5.225,0,10.45.019,15.675a5.294,5.294,0,0,1,.035.978c-.054.277-.209.664-.42.745a.941.941,0,0,1-.812-.263q-6.64-7.38-13.245-14.791c-.843-.94-1.736-1.835-2.613-2.744-.185-.192-.4-.354-.708-.622a4.88,4.88,0,0,0-.143.779q.049,6.359.117,12.718a3.879,3.879,0,0,0,.067.6c.324,1.894.8,2.306,2.7,2.516.478.052,1.266-.191,1.211.724s-.8.568-1.286.572c-2.4.022-4.8.014-7.2.014-.408,0-.909.171-.974-.5-.061-.638.344-.73.847-.788,1.852-.211,2.186-.5,2.451-2.334a24.207,24.207,0,0,0,.237-3.243c.031-3.837.024-7.673.018-11.51,0-2.508-.659-3.323-3.088-3.9-.147-.035-.359-.014-.433-.106a1.786,1.786,0,0,1-.453-.806c-.016-.13.387-.444.6-.447,1.945-.028,3.89-.016,5.834.019a.9.9,0,0,1,.566.366c1.436,1.852,2.75,3.81,4.3,5.561,2.979,3.367,6.092,6.615,9.138,9.921A13.869,13.869,0,0,1,83.274,36l.382-.225" transform="translate(-19.487 -5.962)" fill="#fff"/>
      <path id="Path_6" data-name="Path 6" d="M126.943,19.03c.184,1.713.379,3.365.516,5.022.017.2-.3.621-.431.61a1.1,1.1,0,0,1-.809-.424,11.244,11.244,0,0,1-.524-1.574,2.468,2.468,0,0,0-2.134-1.819c-2.035-.158-4.083-.179-6.126-.174-.245,0-.694.506-.7.786-.064,2.447-.051,4.9-.056,7.345,0,.472.271.684.725.68,1.366-.011,2.733.022,4.1-.056,1.232-.069,1.662-.487,2.012-1.7a3.883,3.883,0,0,1,.287-1.012,1.131,1.131,0,0,1,.76-.494c.157-.008.482.422.486.659q.056,3.444,0,6.888a.841.841,0,0,1-.518.631.9.9,0,0,1-.714-.439,8.556,8.556,0,0,1-.394-1.379,1.639,1.639,0,0,0-1.5-1.309c-1.512-.088-3.03-.113-4.545-.089a.927.927,0,0,0-.655.627c.018,2.5.049,4.994.192,7.484.058,1.01.538,1.46,1.581,1.522a48.265,48.265,0,0,0,5.6.062,4.4,4.4,0,0,0,3.747-2.928,6.208,6.208,0,0,1,.523-1.169,1.124,1.124,0,0,1,.838-.394c.162.01.465.488.421.694-.368,1.7-.8,3.38-1.216,5.068-.129.53-.524.5-.949.5-4.577-.047-9.156-.095-13.733-.114-1.39-.005-2.781.067-4.172.114-.411.014-.766,0-.814-.538s.21-.719.7-.763a16.455,16.455,0,0,0,1.728-.239,1.631,1.631,0,0,0,1.514-1.63,14.7,14.7,0,0,0,.123-1.812q.015-6.856,0-13.712c0-.252-.008-.505-.025-.757-.154-2.219-.254-2.349-2.426-2.884-.45-.11-.756-.276-.691-.8.063-.5.39-.548.819-.547q8.042.027,16.083.029c.1,0,.2.017.381.034" transform="translate(-34.189 -5.965)" fill="#fff"/>
      <path id="Path_7" data-name="Path 7" d="M277.8,19.523c.176,1.673.364,3.3.495,4.936.016.2-.3.627-.418.613a1.138,1.138,0,0,1-.8-.437,9.931,9.931,0,0,1-.5-1.5,2.541,2.541,0,0,0-2.271-1.863c-1.936-.14-3.882-.138-5.825-.169a.742.742,0,0,0-.779.766c-.014.15-.041.3-.042.452,0,2.2.006,4.392-.008,6.588,0,.629.239.931.9.915,1.213-.03,2.428,0,3.64-.045,1.418-.051,1.867-.428,2.253-1.785a3.425,3.425,0,0,1,.265-.939,1.036,1.036,0,0,1,.722-.439c.167,0,.481.371.484.58q.052,3.443,0,6.887c0,.215-.3.6-.47.6a.955.955,0,0,1-.729-.424,6.134,6.134,0,0,1-.378-1.3,1.675,1.675,0,0,0-1.6-1.382c-1.437-.078-2.878-.086-4.318-.1a.67.67,0,0,0-.746.759c.038,2.3.017,4.595.149,6.884.08,1.388.55,1.848,1.957,1.941a41.989,41.989,0,0,0,5.146.022,4.038,4.038,0,0,0,3.388-2.253c.328-.594.533-1.261.895-1.83a1.12,1.12,0,0,1,.858-.348c.136,0,.415.461.373.657-.357,1.649-.772,3.284-1.174,4.923-.115.469-.42.588-.9.587q-8.837-.027-17.672-.008c-.442,0-.82-.006-.851-.582-.03-.552.313-.662.763-.709.578-.06,1.154-.142,1.726-.246a1.553,1.553,0,0,0,1.367-1.418,14.72,14.72,0,0,0,.147-1.885q.019-6.854.006-13.707c0-.152,0-.3-.009-.455-.087-2.259-.262-2.489-2.445-3.016-.447-.108-.664-.306-.624-.773.044-.516.364-.561.8-.56q7.962.025,15.924.025a2.37,2.37,0,0,1,.3.051" transform="translate(-81.706 -6.116)" fill="#fff"/>
      <path id="Path_8" data-name="Path 8" d="M232.374,37.134c.2-.431.35-.715.47-1.011q2.661-6.521,5.313-13.044a7.884,7.884,0,0,0,.253-.792.913.913,0,0,0-.712-1.269,5.469,5.469,0,0,1-1.093-.286c-.256-.136-.414-.455-.616-.694.242-.2.481-.556.727-.56q3.561-.062,7.124.005a.974.974,0,0,1,.673.6c.051.158-.3.638-.484.649-2.251.138-3.245,1.638-4.025,3.484q-3.918,9.278-7.92,18.52a1.146,1.146,0,0,1-.771.613c-.214.019-.571-.343-.686-.612q-4.1-9.653-8.141-19.329a3.585,3.585,0,0,0-3.086-2.534c-.2-.019-.467-.034-.572-.159a1.357,1.357,0,0,1-.37-.806c0-.157.394-.43.612-.433q4.36-.044,8.72,0c.234,0,.675.345.653.465a1.972,1.972,0,0,1-.511.773c-.048.058-.192.038-.292.053-1.609.238-1.9.643-1.294,2.17,1.069,2.7,2.216,5.367,3.343,8.042.744,1.768,1.512,3.527,2.271,5.289.107.247.232.487.414.87" transform="translate(-68.693 -6.115)" fill="#fff"/>
      <path id="Path_9" data-name="Path 9" d="M201,31.105c0-2.3,0-4.593,0-6.89a11.437,11.437,0,0,0-.083-1.51,1.722,1.722,0,0,0-1.6-1.736,12.044,12.044,0,0,0-1.27-.216.629.629,0,0,1-.623-.77c.036-.461.316-.559.731-.544,1.617.06,3.234.133,4.851.135,1.516,0,3.032-.077,4.547-.13.427-.014.828-.036.865.557.034.522-.243.688-.715.768-2.612.44-2.844.7-2.852,3.314-.014,4.695,0,9.389,0,14.083,0,.1,0,.2,0,.3.047,2.223.374,2.6,2.557,2.97.174.029.405,0,.51.106a1.456,1.456,0,0,1,.474.71c.061.4-.227.545-.63.544-3.234-.01-6.469.005-9.7-.029a.818.818,0,0,1-.6-.54.877.877,0,0,1,.478-.675,11,11,0,0,1,1.553-.327,1.628,1.628,0,0,0,1.388-1.5A13.624,13.624,0,0,0,201,38.147c.012-2.347,0-4.694.005-7.041" transform="translate(-62.078 -6.112)" fill="#fff"/>
      <path id="Path_10" data-name="Path 10" d="M13.17,78.58,12.2,80.858h-.509l3.274-7.743h.553l3.605,7.743H18.048L16.987,78.58Zm1.848-4.225h-.045l-1.593,3.727h3.374Z" transform="translate(-3.675 -22.991)" fill="#fff"/>
      <path id="Path_11" data-name="Path 11" d="M33.4,78.84a2.221,2.221,0,0,0,.088.459,1.393,1.393,0,0,0,.3.525,1.764,1.764,0,0,0,.642.437,2.84,2.84,0,0,0,1.117.183,2.59,2.59,0,0,0,1.4-.332,1.151,1.151,0,0,0,.526-1.05,1.263,1.263,0,0,0-.332-.918,2.823,2.823,0,0,0-.835-.581,8.912,8.912,0,0,0-1.09-.426,6.908,6.908,0,0,1-1.089-.454,2.745,2.745,0,0,1-.835-.664,1.586,1.586,0,0,1-.332-1.051,1.825,1.825,0,0,1,.759-1.527,2.585,2.585,0,0,1,.808-.387,3.508,3.508,0,0,1,.969-.132,3.715,3.715,0,0,1,.936.117,2.745,2.745,0,0,1,.8.343,2.1,2.1,0,0,1,.587.553,1.734,1.734,0,0,1,.3.736h-.753a1.248,1.248,0,0,0-.593-.956,2.327,2.327,0,0,0-1.224-.3,2.572,2.572,0,0,0-.765.1,1.839,1.839,0,0,0-.559.277,1.16,1.16,0,0,0-.343.4,1.108,1.108,0,0,0-.117.5.947.947,0,0,0,.344.763,3.444,3.444,0,0,0,.859.509q.516.221,1.12.42a6.18,6.18,0,0,1,1.12.492,2.906,2.906,0,0,1,.86.73,1.763,1.763,0,0,1,.343,1.123,2.042,2.042,0,0,1-.2.907,1.981,1.981,0,0,1-.565.7,2.626,2.626,0,0,1-.881.442,4.011,4.011,0,0,1-1.158.155,4.3,4.3,0,0,1-1.164-.149,3.111,3.111,0,0,1-.925-.42,2.055,2.055,0,0,1-.62-.659,1.849,1.849,0,0,1-.25-.862Z" transform="translate(-10.266 -22.93)" fill="#fff"/>
      <path id="Path_12" data-name="Path 12" d="M52.518,78.84a2.222,2.222,0,0,0,.088.459,1.393,1.393,0,0,0,.3.525,1.764,1.764,0,0,0,.642.437,2.84,2.84,0,0,0,1.117.183,2.59,2.59,0,0,0,1.4-.332,1.151,1.151,0,0,0,.525-1.05,1.262,1.262,0,0,0-.331-.918,2.823,2.823,0,0,0-.835-.581,8.912,8.912,0,0,0-1.09-.426,6.908,6.908,0,0,1-1.089-.454,2.737,2.737,0,0,1-.835-.664,1.586,1.586,0,0,1-.332-1.051,1.825,1.825,0,0,1,.759-1.527,2.585,2.585,0,0,1,.808-.387,3.508,3.508,0,0,1,.969-.132,3.715,3.715,0,0,1,.936.117,2.745,2.745,0,0,1,.8.343,2.1,2.1,0,0,1,.587.553,1.734,1.734,0,0,1,.3.736h-.753a1.248,1.248,0,0,0-.593-.956,2.327,2.327,0,0,0-1.224-.3,2.572,2.572,0,0,0-.765.1,1.839,1.839,0,0,0-.559.277,1.16,1.16,0,0,0-.343.4,1.108,1.108,0,0,0-.117.5.947.947,0,0,0,.344.763,3.444,3.444,0,0,0,.859.509q.516.221,1.12.42a6.18,6.18,0,0,1,1.12.492,2.906,2.906,0,0,1,.86.73,1.763,1.763,0,0,1,.343,1.123,2.042,2.042,0,0,1-.2.907,1.981,1.981,0,0,1-.565.7,2.626,2.626,0,0,1-.881.442,4.011,4.011,0,0,1-1.158.155,4.3,4.3,0,0,1-1.164-.149,3.111,3.111,0,0,1-.925-.42,2.055,2.055,0,0,1-.62-.659,1.85,1.85,0,0,1-.25-.862Z" transform="translate(-16.278 -22.93)" fill="#fff"/>
      <path id="Path_13" data-name="Path 13" d="M77.224,73.115v.609H73.232V76.5H76.66v.509H73.232v3.241h3.993v.609h-5V73.115Z" transform="translate(-22.711 -22.991)" fill="#fff"/>
      <path id="Path_14" data-name="Path 14" d="M92.323,80.858V73.723H89.359v-.609h6.935v.609H93.33v7.135Z" transform="translate(-28.099 -22.991)" fill="#fff"/>
      <path id="Path_15" data-name="Path 15" d="M129.754,79.762h.044l3.584-6.648h.764v7.743h-1.007V74.586h-.044l-3.5,6.4h-.2l-3.418-6.448h-.045v6.315h-.486V73.114h.752Z" transform="translate(-39.448 -22.991)" fill="#fff"/>
      <path id="Path_16" data-name="Path 16" d="M151.07,78.58l-.973,2.279h-.509l3.274-7.743h.553l3.605,7.743h-1.073l-1.061-2.279Zm1.848-4.225h-.045l-1.593,3.727h3.374Z" transform="translate(-47.037 -22.991)" fill="#fff"/>
      <path id="Path_17" data-name="Path 17" d="M178.633,73.054V80.93h-.055l-6.139-6.05H172.4V80.8h-.509V72.922h.056l6.139,6.05h.044V73.054Z" transform="translate(-54.049 -22.93)" fill="#fff"/>
      <path id="Path_18" data-name="Path 18" d="M194.665,78.58l-.973,2.279h-.509l3.274-7.743h.553l3.605,7.743h-1.073l-1.061-2.279Zm1.848-4.225h-.045l-1.593,3.727h3.374Z" transform="translate(-60.746 -22.991)" fill="#fff"/>
      <path id="Path_19" data-name="Path 19" d="M222.223,80.8h-.94v-.454a5.558,5.558,0,0,1-1.064.4,5.418,5.418,0,0,1-1.473.182,4.738,4.738,0,0,1-1.906-.348,3.713,3.713,0,0,1-1.313-.929,3.807,3.807,0,0,1-.764-1.316,4.7,4.7,0,0,1-.249-1.521,4.012,4.012,0,0,1,.32-1.642,3.422,3.422,0,0,1,.9-1.222,4,4,0,0,1,1.366-.763,5.389,5.389,0,0,1,1.731-.266,4.94,4.94,0,0,1,1.421.183,3.98,3.98,0,0,1,1.012.447,2.627,2.627,0,0,1,.647.57,2.371,2.371,0,0,1,.337.547h-.8a1.1,1.1,0,0,0-.293-.459,2.241,2.241,0,0,0-.581-.4,3.856,3.856,0,0,0-.808-.288,4.156,4.156,0,0,0-.973-.11,3.466,3.466,0,0,0-1.377.254,2.774,2.774,0,0,0-1,.719,3.046,3.046,0,0,0-.614,1.106,4.594,4.594,0,0,0-.205,1.4,4.462,4.462,0,0,0,.217,1.421,3.042,3.042,0,0,0,.649,1.117,2.962,2.962,0,0,0,1.086.736,4.061,4.061,0,0,0,1.529.265,4.15,4.15,0,0,0,1.185-.155,3.973,3.973,0,0,0,1.02-.475v-2h-1.239v-.454h2.179Z" transform="translate(-67.453 -22.93)" fill="#fff"/>
      <path id="Path_20" data-name="Path 20" d="M242.7,73.115v.609H238.7V76.5h3.428v.509H238.7v3.241H242.7v.609h-5V73.115Z" transform="translate(-74.743 -22.991)" fill="#fff"/>
      <path id="Path_21" data-name="Path 21" d="M260.749,79.762h.044l3.584-6.648h.764v7.743h-1.007V74.586h-.044l-3.5,6.4h-.2l-3.418-6.448h-.045v6.315h-.486V73.114h.752Z" transform="translate(-80.638 -22.991)" fill="#fff"/>
      <path id="Path_22" data-name="Path 22" d="M287.034,73.115v.609h-3.993V76.5h3.428v.509h-3.428v3.241h3.993v.609h-5V73.115Z" transform="translate(-88.684 -22.991)" fill="#fff"/>
      <path id="Path_23" data-name="Path 23" d="M307.53,73.054V80.93h-.055l-6.139-6.05h-.044V80.8h-.509V72.922h.056l6.139,6.05h.044V73.054Z" transform="translate(-94.58 -22.93)" fill="#fff"/>
      <path id="Path_24" data-name="Path 24" d="M324.883,80.858V73.723h-2.964v-.609h6.935v.609H325.89v7.135Z" transform="translate(-101.226 -22.991)" fill="#fff"/>
    </g>
  </g>
</svg>
