<svg xmlns="http://www.w3.org/2000/svg" xmlns:xlink="http://www.w3.org/1999/xlink" width="404.642" height="58.538" viewBox="0 0 404.642 58.538">
  <defs>
    <clipPath id="clip-path">
      <rect id="Rectangle_19" data-name="Rectangle 19" width="404.642" height="58.538" fill="#fff"/>
    </clipPath>
  </defs>
  <g id="Group_20" data-name="Group 20" transform="translate(-1327.772 -52.24)">
    <g id="Group_7" data-name="Group 7" transform="translate(1327.772 52.24)">
      <path id="Path_31" data-name="Path 31" d="M107.259,58.725h.045l1.756,3.761h-3.407Zm-.01-1.252-3.306,7.815h.514l.981-2.3h3.853l1.071,2.3h1.082l-3.638-7.815Z" transform="translate(-12.449 -6.884)" fill="#fff"/>
      <g id="Group_8" data-name="Group 8" transform="translate(0 0)">
        <g id="Group_7-2" data-name="Group 7" clip-path="url(#clip-path)">
          <path id="Path_32" data-name="Path 32" d="M121.179,63.293a2.248,2.248,0,0,0,.088.464,1.4,1.4,0,0,0,.3.528,1.785,1.785,0,0,0,.648.44,2.861,2.861,0,0,0,1.127.185,2.616,2.616,0,0,0,1.408-.335,1.162,1.162,0,0,0,.528-1.056,1.272,1.272,0,0,0-.334-.927,2.843,2.843,0,0,0-.842-.586,8.981,8.981,0,0,0-1.1-.43,6.931,6.931,0,0,1-1.1-.458,2.766,2.766,0,0,1-.842-.67,1.6,1.6,0,0,1-.33-1.062,1.841,1.841,0,0,1,.766-1.541,2.606,2.606,0,0,1,.816-.391,3.561,3.561,0,0,1,.978-.134,3.757,3.757,0,0,1,.944.118,2.777,2.777,0,0,1,.811.346,2.118,2.118,0,0,1,.592.558,1.756,1.756,0,0,1,.3.742h-.761a1.26,1.26,0,0,0-.6-.968,2.349,2.349,0,0,0-1.232-.306,2.574,2.574,0,0,0-.772.1,1.859,1.859,0,0,0-.564.28,1.179,1.179,0,0,0-.347.407,1.107,1.107,0,0,0-.118.5.953.953,0,0,0,.348.77,3.462,3.462,0,0,0,.867.513q.522.223,1.13.424a6.215,6.215,0,0,1,1.13.5,2.934,2.934,0,0,1,.868.737,1.777,1.777,0,0,1,.347,1.134,2.056,2.056,0,0,1-.2.915,2.005,2.005,0,0,1-.57.7,2.658,2.658,0,0,1-.889.446,4.039,4.039,0,0,1-1.169.157,4.34,4.34,0,0,1-1.175-.151,3.124,3.124,0,0,1-.934-.424,2.081,2.081,0,0,1-.626-.665,1.871,1.871,0,0,1-.252-.871Z" transform="translate(-14.423 -6.865)" fill="#fff"/>
          <path id="Path_33" data-name="Path 33" d="M136.206,63.293a2.251,2.251,0,0,0,.088.464,1.4,1.4,0,0,0,.3.528,1.785,1.785,0,0,0,.648.44,2.861,2.861,0,0,0,1.127.185,2.616,2.616,0,0,0,1.408-.335,1.16,1.16,0,0,0,.528-1.056,1.272,1.272,0,0,0-.334-.927,2.843,2.843,0,0,0-.842-.586,8.986,8.986,0,0,0-1.1-.43,6.927,6.927,0,0,1-1.1-.458,2.754,2.754,0,0,1-.842-.67,1.6,1.6,0,0,1-.334-1.061,1.841,1.841,0,0,1,.766-1.541,2.606,2.606,0,0,1,.816-.391,3.562,3.562,0,0,1,.978-.134,3.758,3.758,0,0,1,.944.118,2.777,2.777,0,0,1,.811.346,2.117,2.117,0,0,1,.592.558,1.755,1.755,0,0,1,.3.742h-.76a1.261,1.261,0,0,0-.6-.968,2.349,2.349,0,0,0-1.232-.306,2.574,2.574,0,0,0-.772.1,1.859,1.859,0,0,0-.564.28,1.179,1.179,0,0,0-.347.407,1.119,1.119,0,0,0-.118.5.953.953,0,0,0,.348.77,3.461,3.461,0,0,0,.867.513q.521.223,1.13.424a6.215,6.215,0,0,1,1.13.5,2.934,2.934,0,0,1,.868.737,1.777,1.777,0,0,1,.347,1.134,2.056,2.056,0,0,1-.2.915,2.006,2.006,0,0,1-.57.7,2.659,2.659,0,0,1-.889.446,4.04,4.04,0,0,1-1.169.157,4.34,4.34,0,0,1-1.175-.151,3.123,3.123,0,0,1-.934-.424,2.081,2.081,0,0,1-.626-.665,1.871,1.871,0,0,1-.252-.871Z" transform="translate(-16.222 -6.866)" fill="#fff"/>
          <path id="Path_34" data-name="Path 34" d="M156.575,57.473v.616h-4.03v2.8h3.46v.513h-3.46v3.272h4.03v.616h-5.046V57.473Z" transform="translate(-18.149 -6.884)" fill="#fff"/>
          <path id="Path_35" data-name="Path 35" d="M167.991,65.287v-7.2H165V57.47h7v.616H169v7.2Z" transform="translate(-19.762 -6.883)" fill="#fff"/>
          <path id="Path_36" data-name="Path 36" d="M197.712,64.181h.044l3.618-6.709h.771v7.816h-1.017V58.956h-.044l-3.528,6.464h-.2l-3.45-6.508h-.045v6.374h-.49V57.472h.759Z" transform="translate(-23.16 -6.884)" fill="#fff"/>
          <path id="Path_37" data-name="Path 37" d="M213.838,62.989l-.981,2.3h-.514l3.3-7.816h.558l3.639,7.816h-1.083l-1.071-2.3Zm1.864-4.264h-.045l-1.607,3.762h3.408Z" transform="translate(-25.432 -6.884)" fill="#fff"/>
          <path id="Path_38" data-name="Path 38" d="M236.68,57.453V65.4h-.055l-6.2-6.106h-.044v5.972h-.514V57.317h.056l6.2,6.106h.044v-5.97Z" transform="translate(-27.532 -6.865)" fill="#fff"/>
          <path id="Path_39" data-name="Path 39" d="M248.107,62.989l-.981,2.3h-.514l3.3-7.816h.558l3.639,7.816H253.03l-1.071-2.3Zm1.864-4.265h-.045l-1.607,3.762h3.4Z" transform="translate(-29.537 -6.884)" fill="#fff"/>
          <path id="Path_40" data-name="Path 40" d="M271.158,65.269h-.949v-.458a5.66,5.66,0,0,1-1.074.408,5.5,5.5,0,0,1-1.487.183,4.781,4.781,0,0,1-1.923-.352,3.751,3.751,0,0,1-1.325-.937,3.83,3.83,0,0,1-.771-1.328,4.745,4.745,0,0,1-.251-1.535,4.061,4.061,0,0,1,.323-1.657,3.44,3.44,0,0,1,.9-1.232,4.045,4.045,0,0,1,1.379-.77,5.424,5.424,0,0,1,1.747-.264,4.969,4.969,0,0,1,1.435.185,4.01,4.01,0,0,1,1.021.451,2.666,2.666,0,0,1,.653.576,2.375,2.375,0,0,1,.341.552h-.8a1.1,1.1,0,0,0-.3-.464,2.27,2.27,0,0,0-.586-.407,3.879,3.879,0,0,0-.815-.29,4.194,4.194,0,0,0-.982-.111,3.509,3.509,0,0,0-1.389.256,2.79,2.79,0,0,0-1.01.726,3.078,3.078,0,0,0-.616,1.117,4.654,4.654,0,0,0-.207,1.417,4.5,4.5,0,0,0,.209,1.426,3.067,3.067,0,0,0,.655,1.128,2.992,2.992,0,0,0,1.1.743,4.092,4.092,0,0,0,1.544.264,4.164,4.164,0,0,0,1.2-.157,4.008,4.008,0,0,0,1.03-.48V62.233h-1.25v-.458h2.2Z" transform="translate(-31.545 -6.866)" fill="#fff"/>
          <path id="Path_41" data-name="Path 41" d="M286.648,57.473v.616h-4.03v2.8h3.46v.513h-3.46v3.272h4.03v.616H281.6V57.473Z" transform="translate(-33.728 -6.884)" fill="#fff"/>
          <path id="Path_42" data-name="Path 42" d="M300.681,64.181h.044l3.617-6.709h.771v7.816H304.1V58.956h-.044l-3.53,6.465h-.2l-3.45-6.508h-.047v6.374h-.49V57.472h.759Z" transform="translate(-35.492 -6.884)" fill="#fff"/>
          <path id="Path_43" data-name="Path 43" d="M321.5,57.473v.616h-4.03v2.8h3.46v.513h-3.46v3.272h4.03v.616h-5.046V57.473Z" transform="translate(-37.902 -6.884)" fill="#fff"/>
          <path id="Path_44" data-name="Path 44" d="M338,57.453V65.4h-.055l-6.2-6.106h-.044v5.972h-.514V57.317h.056l6.2,6.106h.044v-5.97Z" transform="translate(-39.667 -6.865)" fill="#fff"/>
          <path id="Path_45" data-name="Path 45" d="M350.8,65.287v-7.2H347.8V57.47h7v.616h-2.993v7.2Z" transform="translate(-41.657 -6.883)" fill="#fff"/>
          <path id="Path_46" data-name="Path 46" d="M0,17.731c.184-1.049.322-2.113.561-3.146A18.324,18.324,0,0,1,21.612.218C29.8,1.4,35.52,7.277,36.584,15.6c.713,5.587-.264,10.807-3.815,15.293-4.435,5.6-10.375,7.678-17.341,6.6C6.831,36.167,1.121,30.016.154,21.37c-.028-.245-.1-.489-.154-.733v-2.9M31.631,20.3a26.6,26.6,0,0,0-1.439-9.014,14.683,14.683,0,0,0-5.474-7.635A12.1,12.1,0,0,0,6.569,9.562,23.111,23.111,0,0,0,5.58,21.981a20.56,20.56,0,0,0,3.979,9.563c5.069,6.5,16.613,6.715,20.619-2.951a20.764,20.764,0,0,0,1.454-8.3" transform="translate(0 0)" fill="#fff"/>
          <path id="Path_47" data-name="Path 47" d="M123.5,1.219c3.1.208,6.229.218,9.293.671,4.067.6,6.767,3.275,7.349,6.789a9.154,9.154,0,0,1-3.862,9.426,11.805,11.805,0,0,1-1.356.857c-1.441.792-1.454.792-.609,2.194a84.249,84.249,0,0,0,7.459,11.188c.771.914,1.637,1.749,2.485,2.6a6.227,6.227,0,0,0,3.284,1.693,2.569,2.569,0,0,1,.7.411c-.233.151-.452.408-.7.44-3.452.44-6.69-.061-9.154-2.734a43.928,43.928,0,0,1-3.954-5.138c-1.4-2.065-2.692-4.212-3.935-6.377a4.261,4.261,0,0,0-4.1-2.272c-2.437.021-2.439-.021-2.437,2.363,0,2.345,0,4.69.013,7.035,0,.764.031,1.529.083,2.289.144,2.1.7,2.729,2.771,3.088.276.048.555.088.834.117.447.041.716.222.672.724s-.327.6-.781.592q-4.211-.066-8.423-.088c-1.047,0-2.093.041-3.139.088-.415.018-.7-.072-.746-.54a.61.61,0,0,1,.441-.741.6.6,0,0,1,.19-.018c.584-.058,1.163-.157,1.741-.257a2.255,2.255,0,0,0,2-2.1,15.01,15.01,0,0,0,.176-1.976q.017-12.043,0-24.087a13.573,13.573,0,0,0-.2-2.281,1.936,1.936,0,0,0-1.922-1.841c-.378-.058-.758-.112-1.138-.154-.445-.05-.88-.075-.885-.7s.407-.665.871-.69q3.479-.2,6.954-.408l.017-.16m.477,10.133h.011c0,2.294.013,4.588-.007,6.881-.006.744.252,1.152,1.048,1.144,1.4-.009,2.817.114,4.208-.009,3.653-.322,5.652-2.166,6.25-5.8a13.569,13.569,0,0,0,.076-3.724,7.419,7.419,0,0,0-6.8-6.77,20.046,20.046,0,0,0-3.21-.034c-1.256.055-1.563.4-1.572,1.657-.015,2.217,0,4.435,0,6.652" transform="translate(-13.801 -0.146)" fill="#fff"/>
          <path id="Path_48" data-name="Path 48" d="M239.108,38.838c-1.584,0-3.163-.008-4.744.005-.416,0-.778-.007-.833-.539-.048-.478.2-.7.642-.774.251-.04.5-.106.746-.166,1.652-.4,2.031-.775,2.04-2.444.03-5.273.008-10.545,0-15.817a5.051,5.051,0,0,0-.125-.981,1.21,1.21,0,0,0-1.129-1.068,4.6,4.6,0,0,1-1.27-.239.879.879,0,0,1-.39-.692.72.72,0,0,1,.475-.528c4.477-.247,8.968-.78,13.419.176,2.307.5,4.1,1.7,4.713,4.158.785,3.169-.528,5.737-3.609,7.152-1.1.5-1.123.592-.528,1.611a35.894,35.894,0,0,0,5.526,7.482,5.766,5.766,0,0,0,3.183,1.848c.182.027.327.294.489.45-.176.153-.335.409-.533.44-2.459.415-4.86.254-6.76-1.522a27.856,27.856,0,0,1-3.271-3.912c-.9-1.232-1.648-2.574-2.465-3.867a2.868,2.868,0,0,0-3.345-1.144.913.913,0,0,0-.452.686c-.015,2.062-.031,4.127.06,6.187.06,1.358.5,1.747,1.854,2.011q.563.11,1.134.176c.447.05.8.164.771.724-.031.582-.406.594-.855.59-1.584-.016-3.163-.006-4.744-.006m1.76-16.9c0,1.32.01,2.648,0,3.972-.007.7.312,1.052,1.006,1.049.943,0,1.891.046,2.826-.043a3.937,3.937,0,0,0,3.838-3.6c.588-3.388-1-5.93-4.1-6.467a10.874,10.874,0,0,0-2.289-.073c-.968.04-1.256.365-1.27,1.34-.019,1.273,0,2.547-.005,3.819" transform="translate(-27.969 -1.824)" fill="#fff"/>
          <path id="Path_49" data-name="Path 49" d="M70.6,31.874a7.3,7.3,0,0,0,.158-1.1c-.017-3.591-.036-7.183-.088-10.774a10.588,10.588,0,0,0-.3-2.035,1.97,1.97,0,0,0-1.926-1.662c-.407-.036-.812-.1-1.219-.118-.464-.02-.627-.264-.6-.694.026-.446.264-.6.7-.593q4.093.022,8.186,0c.415,0,.69.166.623.558a1.2,1.2,0,0,1-.5.694,1.724,1.724,0,0,1-.746.114c-1.253.125-1.745.487-1.952,1.741a23.63,23.63,0,0,0-.342,3.72c-.026,5.273.005,10.547.019,15.82a5.368,5.368,0,0,1,.035.988c-.055.28-.211.67-.423.752a.952.952,0,0,1-.82-.264q-6.7-7.449-13.369-14.931c-.85-.949-1.752-1.848-2.641-2.769-.187-.194-.4-.357-.715-.628a4.96,4.96,0,0,0-.143.786q.05,6.418.118,12.836a3.9,3.9,0,0,0,.068.606c.327,1.911.8,2.327,2.729,2.539.482.053,1.278-.193,1.222.731s-.8.573-1.3.577c-2.423.022-4.841.015-7.269.015-.412,0-.917.176-.983-.51-.062-.643.348-.737.856-.792,1.869-.213,2.207-.5,2.473-2.355a24.381,24.381,0,0,0,.239-3.273c.031-3.873.025-7.746.018-11.619,0-2.531-.665-3.354-3.117-3.937-.149-.035-.362-.014-.44-.107a1.806,1.806,0,0,1-.458-.813c-.016-.131.391-.448.609-.452,1.963-.028,3.926-.016,5.888.019a.911.911,0,0,1,.571.37c1.45,1.87,2.776,3.845,4.34,5.612,3.006,3.4,6.148,6.677,9.223,10.013a13.892,13.892,0,0,1,.88,1.159l.386-.227" transform="translate(-5.833 -1.785)" fill="#fff"/>
          <path id="Path_50" data-name="Path 50" d="M103.852,14.976c.186,1.729.383,3.4.52,5.069.018.205-.3.627-.435.616a1.116,1.116,0,0,1-.817-.429,11.378,11.378,0,0,1-.528-1.584,2.491,2.491,0,0,0-2.154-1.836c-2.054-.16-4.121-.18-6.183-.176-.247,0-.7.511-.7.792-.064,2.47-.051,4.942-.056,7.413,0,.476.274.69.731.687,1.378-.011,2.759.022,4.137-.056,1.244-.07,1.677-.492,2.031-1.711a3.924,3.924,0,0,1,.29-1.021,1.143,1.143,0,0,1,.768-.5c.158-.008.487.426.49.665q.057,3.476,0,6.954a.851.851,0,0,1-.522.637.913.913,0,0,1-.721-.44,8.657,8.657,0,0,1-.4-1.392,1.654,1.654,0,0,0-1.515-1.32c-1.526-.088-3.058-.114-4.587-.088a.934.934,0,0,0-.661.632c.018,2.518.049,5.04.194,7.553.059,1.019.543,1.474,1.6,1.536a48.777,48.777,0,0,0,5.649.063,4.45,4.45,0,0,0,3.785-2.955,6.24,6.24,0,0,1,.528-1.18,1.136,1.136,0,0,1,.846-.4c.164.01.47.493.425.7-.371,1.713-.811,3.411-1.227,5.115-.13.535-.528.507-.958.5-4.62-.048-9.242-.1-13.86-.115-1.4-.005-2.807.068-4.21.115-.415.014-.774,0-.821-.543s.212-.726.7-.77a16.606,16.606,0,0,0,1.744-.241,1.646,1.646,0,0,0,1.528-1.644,14.776,14.776,0,0,0,.124-1.829q.016-6.92.005-13.839c0-.254-.008-.51-.026-.764-.155-2.239-.257-2.371-2.448-2.911-.454-.112-.763-.278-.7-.808.063-.507.393-.554.827-.552q8.116.028,16.232.029c.1,0,.2.018.385.034" transform="translate(-10.238 -1.788)" fill="#fff"/>
          <path id="Path_51" data-name="Path 51" d="M222.374,15.363c.176,1.689.367,3.333.5,4.982.017.206-.3.632-.422.616a1.143,1.143,0,0,1-.806-.44,9.976,9.976,0,0,1-.5-1.517,2.564,2.564,0,0,0-2.289-1.881c-1.954-.141-3.918-.139-5.879-.17a.749.749,0,0,0-.785.71.511.511,0,0,0,0,.063c-.015.151-.041.3-.042.456,0,2.216.006,4.433-.008,6.649,0,.636.241.939.9.923,1.224-.031,2.45,0,3.673-.045,1.431-.051,1.885-.431,2.275-1.8a3.454,3.454,0,0,1,.264-.948,1.047,1.047,0,0,1,.729-.44c.168,0,.485.374.489.585q.053,3.475,0,6.954c0,.217-.306.6-.474.6a.969.969,0,0,1-.736-.428,6.206,6.206,0,0,1-.382-1.315,1.69,1.69,0,0,0-1.616-1.4c-1.451-.079-2.9-.088-4.358-.1a.677.677,0,0,0-.754.588.67.67,0,0,0,0,.178c.039,2.317.018,4.637.151,6.949.08,1.4.555,1.865,1.975,1.959a42.42,42.42,0,0,0,5.193.022,4.075,4.075,0,0,0,3.42-2.275c.331-.6.538-1.273.9-1.848a1.129,1.129,0,0,1,.865-.352c.137,0,.419.465.377.663-.361,1.664-.779,3.315-1.185,4.969-.116.474-.424.593-.906.592q-8.919-.028-17.835-.008c-.446,0-.827-.006-.859-.587-.031-.557.315-.668.77-.716.584-.06,1.165-.143,1.742-.248a1.568,1.568,0,0,0,1.379-1.431,14.959,14.959,0,0,0,.148-1.9q.018-6.917.006-13.835c0-.153,0-.305-.009-.459-.088-2.28-.264-2.511-2.465-3.045-.452-.108-.671-.309-.629-.781.044-.52.367-.567.8-.565q8.037.025,16.072.025a2.418,2.418,0,0,1,.306.051" transform="translate(-24.463 -1.831)" fill="#fff"/>
          <path id="Path_52" data-name="Path 52" d="M185.766,33.136c.2-.435.352-.722.474-1.02q2.686-6.582,5.362-13.165a7.969,7.969,0,0,0,.255-.8.921.921,0,0,0-.719-1.281,5.568,5.568,0,0,1-1.1-.289c-.259-.137-.418-.459-.622-.7.244-.2.486-.561.733-.565q3.594-.062,7.191.005a.984.984,0,0,1,.68.6c.052.16-.3.643-.489.655-2.272.14-3.275,1.653-4.062,3.517q-3.954,9.364-7.993,18.692a1.157,1.157,0,0,1-.778.616c-.216.019-.577-.347-.692-.616q-4.137-9.743-8.216-19.509a3.618,3.618,0,0,0-3.114-2.558c-.2-.019-.471-.034-.577-.16a1.369,1.369,0,0,1-.373-.813c0-.158.4-.434.616-.44q4.4-.045,8.8,0c.236,0,.68.352.659.47a1.988,1.988,0,0,1-.516.78c-.048.059-.194.038-.295.054-1.624.24-1.917.649-1.306,2.19,1.078,2.724,2.237,5.417,3.374,8.117.752,1.784,1.525,3.56,2.289,5.338.108.25.234.492.418.88" transform="translate(-20.567 -1.83)" fill="#fff"/>
          <path id="Path_53" data-name="Path 53" d="M158.8,27.055c0-2.318,0-4.636,0-6.954a11.46,11.46,0,0,0-.088-1.525,1.737,1.737,0,0,0-1.615-1.752,12.15,12.15,0,0,0-1.282-.218.634.634,0,0,1-.645-.623.646.646,0,0,1,.016-.154c.036-.466.319-.564.739-.549,1.632.06,3.264.134,4.9.136,1.53,0,3.06-.078,4.59-.131.431-.015.836-.037.873.562.034.528-.245.694-.722.775-2.636.44-2.87.7-2.878,3.345-.014,4.738,0,9.476,0,14.214v.305c.047,2.243.377,2.627,2.581,3,.176.03.409,0,.515.107a1.467,1.467,0,0,1,.478.717c.062.4-.229.55-.636.548-3.265-.01-6.529.005-9.793-.03a.827.827,0,0,1-.6-.545.886.886,0,0,1,.482-.681,11.064,11.064,0,0,1,1.567-.33,1.643,1.643,0,0,0,1.4-1.511,13.861,13.861,0,0,0,.116-1.6c.011-2.369,0-4.737.005-7.107" transform="translate(-18.585 -1.83)" fill="#fff"/>
          <path id="Path_54" data-name="Path 54" d="M268.517,11.34c0-3.8-.375-6.1-.91-6.851a3.307,3.307,0,0,0-2.087-1.07l-.7-.161c-.216-.107-.216-.7.053-.856,4.443-.268,9.26-.429,13.06-.429a35.283,35.283,0,0,1,12.15,1.713,16.191,16.191,0,0,1,10.757,15.576c0,6.8-3.1,12.792-9.419,16.111-3.479,1.819-8.242,2.515-12.417,2.515-1.553,0-3.1-.107-4.55-.214s-2.676-.214-3.64-.214c-2.89,0-5.031.053-6.743.16-.268-.053-.321-.589-.107-.856L265.3,36.5a4.2,4.2,0,0,0,2.516-1.123c.535-.8.7-3.319.7-6.423Zm4.068,16.539c0,2.463.107,5.192,1.017,6.53,1.178,1.606,3.319,2.248,6.423,2.248,11.079,0,16-6.9,16-17.181,0-6.048-3.1-16.325-17.341-16.271-3.212,0-5.031.375-5.513.8-.428.428-.589,2.248-.589,4.656Z" transform="translate(-31.6 -0.236)" fill="#fff"/>
          <path id="Path_55" data-name="Path 55" d="M313.57,21.5c0-3.693-.214-3.907-2.515-4.282l-1.018-.16c-.374-.268-.321-1.178.107-1.338,2.088.107,3.747.16,5.46.16s3.372-.054,5.459-.16c.428.16.482,1.069.107,1.338l-1.018.16c-2.3.375-2.516.589-2.516,4.282V33.484c0,3.693.214,3.908,2.516,4.281l1.018.161c.375.268.32,1.178-.107,1.338-2.034-.107-3.8-.16-5.459-.16-1.713,0-3.372.053-5.46.16-.428-.16-.481-1.07-.107-1.338l1.018-.161c2.3-.373,2.515-.589,2.515-4.281Z" transform="translate(-37.103 -1.882)" fill="#fff"/>
          <path id="Path_56" data-name="Path 56" d="M347.134,34.208c0-2.462-.054-2.783-2.462-3.211l-1.712-.321a.9.9,0,0,1,.053-1.338c2.141.107,4.5.16,6.048.16,1.5,0,3.265-.054,4.549-.16a.946.946,0,0,1,.161,1.338l-.964.214c-1.391.321-1.606.643-1.606,2.943v1.5c0,1.284.107,2.087.857,2.462.214.161.214.643-.055.75-.588,0-1.712.32-3.211.589a28.817,28.817,0,0,1-5.352.642c-4.764,0-8.671-1.124-11.508-3.961a11.688,11.688,0,0,1-3.319-8.135,11.951,11.951,0,0,1,3.372-8.4c2.462-2.515,6.1-4.229,11.829-4.229a33.584,33.584,0,0,1,7.172,1.07c.054,1.071.161,3.212.482,6.048a.851.851,0,0,1-1.392.055c-1.392-4.229-3.693-5.62-7.6-5.62-5.62,0-9.1,4.335-9.1,10.6,0,6.584,4.068,11.027,10.544,11.027,2.836,0,3.211-.536,3.211-2.676Z" transform="translate(-39.358 -1.802)" fill="#fff"/>
          <path id="Path_57" data-name="Path 57" d="M365.553,21.5c0-3.693-.214-3.907-2.516-4.282l-1.018-.16c-.374-.268-.32-1.178.107-1.338,2.087.107,3.746.16,5.46.16s3.371-.054,5.459-.16c.428.16.481,1.069.106,1.338l-1.017.16c-2.3.375-2.516.589-2.516,4.282V33.484c0,3.693.214,3.908,2.516,4.281l1.017.161c.375.268.321,1.178-.106,1.338-2.034-.107-3.8-.16-5.459-.16-1.714,0-3.373.053-5.46.16-.428-.16-.482-1.07-.107-1.338l1.018-.161c2.3-.373,2.516-.589,2.516-4.281Z" transform="translate(-43.329 -1.882)" fill="#fff"/>
          <path id="Path_58" data-name="Path 58" d="M388.959,18.68c0-1.392-.054-1.392-1.124-1.392h-1.659c-3.265,0-4.656.321-5.941,4.014a.923.923,0,0,1-1.339-.267c.589-2.3,1.178-4.978,1.445-6.316a.8.8,0,0,1,.964,0c.053,1.07.8,1.017,2.943,1.017h14.88c1.98,0,2.355-.054,2.783-1.017a.715.715,0,0,1,.964.16,22.392,22.392,0,0,0-.536,6.263A.858.858,0,0,1,401,21.2c-.375-3.479-1.767-3.907-4.979-3.907H394.2c-1.017,0-1.178,0-1.178,1.392V33.346c0,3.693.214,4.015,2.516,4.281l1.445.161c.375.268.32,1.178-.107,1.339-2.194-.108-4.229-.161-5.887-.161-1.714,0-3.64.053-5.888.161-.428-.161-.482-1.071-.107-1.339l1.445-.161c2.3-.267,2.516-.589,2.516-4.281Z" transform="translate(-45.38 -1.744)" fill="#fff"/>
          <path id="Path_59" data-name="Path 59" d="M413.656,30.74c-1.231,0-1.392.054-1.819,1.284L410.6,35.45c-.588,1.713-.428,1.927.589,2.141l1.446.268c.428.268.374,1.231-.161,1.339-1.338-.107-2.73-.161-4.228-.161s-2.783.107-3.747.161a.862.862,0,0,1-.106-1.339l1.231-.268c1.659-.374,2.248-.963,3.318-3.532l5.139-12.311a16.922,16.922,0,0,0,1.392-4.5,4.7,4.7,0,0,0,2.247-2.034c.429-.16.749-.053.856.268.214.536,1.07,3.319,2.3,6.584L425.7,34.861c.643,1.767,1.124,2.463,3.051,2.837l.856.16a.782.782,0,0,1-.16,1.339c-1.392-.107-2.623-.161-4.443-.161-1.928,0-3.479.054-4.818.161a.782.782,0,0,1-.107-1.339l1.071-.16c1.392-.215,1.338-.535.7-2.2l-1.284-3.479c-.428-1.231-.589-1.284-1.819-1.284Zm4.229-1.713c1.391,0,1.552-.107.963-1.659l-1.659-4.549a10.287,10.287,0,0,0-.8-1.927h-.106a12.089,12.089,0,0,0-.857,1.819L413.5,27.475c-.589,1.445-.482,1.552.7,1.552Z" transform="translate(-48.402 -1.814)" fill="#fff"/>
          <path id="Path_60" data-name="Path 60" d="M439.91,21.5c0-3.693-.214-3.907-2.515-4.282l-1.017-.16c-.374-.268-.321-1.178.106-1.338,2.088.107,3.747.16,5.46.16s3.372-.054,5.138-.16c.429.16.482,1.069.108,1.338l-.7.16c-2.247.535-2.516.589-2.516,4.282V33c0,1.659.107,3.157.589,3.693.482.481,1.339.856,4.122.856,3.265,0,5.245-.159,6.8-4.443a.916.916,0,0,1,1.392.215,19.731,19.731,0,0,1-1.606,5.941c-3.371-.107-6.208-.16-8.938-.16h-4.389c-1.713,0-3.372.053-5.46.16-.428-.16-.481-1.07-.106-1.338l1.017-.161c2.3-.373,2.515-.589,2.515-4.281Z" transform="translate(-52.235 -1.882)" fill="#fff"/>
        </g>
      </g>
    </g>
  </g>
</svg>
