<svg xmlns="http://www.w3.org/2000/svg" xmlns:xlink="http://www.w3.org/1999/xlink" width="300" height="300" viewBox="0 0 300 300">
  <defs>
    <clipPath id="clip-FAVICON">
      <rect width="300" height="300"/>
    </clipPath>
  </defs>
  <g id="FAVICON" clip-path="url(#clip-FAVICON)">
    <rect width="300" height="300" fill="#fff"/>
    <g id="Group_264" data-name="Group 264" transform="translate(23732.365 5530.046)">
      <path id="Path_144" data-name="Path 144" d="M0,60.118c.624-3.557,1.093-7.151,1.9-10.667C9.583,15.972,39.166-4.195,73.277.739c27.741,4.012,47.159,23.932,50.763,52.168,2.416,18.942-.889,36.64-12.933,51.854-15.035,18.989-35.178,26.034-58.788,22.381C23.162,122.628,3.8,101.76.521,72.458.427,71.621.176,70.8,0,69.972V60.118m107.247,8.7a90.123,90.123,0,0,0-4.887-30.557C98.689,27.854,93.145,18.719,83.8,12.373,65.627.035,33.958,2.752,22.273,32.422,16.9,46.068,16.589,60.236,18.918,74.528c1.931,11.852,6.006,22.822,13.489,32.424,17.187,22.048,56.327,22.768,69.908-10,3.735-9.011,5.039-18.451,4.931-28.131" transform="translate(-23703.195 -5442.082)" fill="#09102e"/>
      <path id="Path_143" data-name="Path 143" d="M174.588,1.551c10.51.7,21.121.739,31.509,2.276,13.787,2.041,22.946,11.106,24.917,23.019,2.2,13.316-2.341,23.927-13.093,31.96a39.973,39.973,0,0,1-4.6,2.907c-4.887,2.7-4.931,2.686-2.067,7.439,7.854,13.027,15.42,26.256,25.29,37.932,2.616,3.1,5.551,5.931,8.424,8.8a21.121,21.121,0,0,0,11.136,5.741,8.722,8.722,0,0,1,2.4,1.394c-.791.514-1.534,1.382-2.376,1.49-11.707,1.5-22.674-.206-31.033-9.269A148.927,148.927,0,0,1,211.69,97.819c-4.755-7-9.126-14.28-13.342-21.623-3.16-5.506-7.681-7.756-13.888-7.7-8.265.073-8.27-.073-8.265,8.014,0,7.951,0,15.9.045,23.852.014,2.59.1,5.185.279,7.77.488,7.134,2.4,9.239,9.4,10.47.936.164,1.879.307,2.827.4,1.516.141,2.426.753,2.28,2.454s-1.107,2.032-2.649,2.008q-14.277-.225-28.558-.3c-3.547-.016-7.1.141-10.641.3-1.41.063-2.4-.244-2.531-1.83a2.067,2.067,0,0,1,2.14-2.571c1.978-.2,3.944-.533,5.9-.873,4.009-.694,6.254-3.144,6.789-7.113a50.7,50.7,0,0,0,.577-6.707q.06-40.831,0-81.667a46.186,46.186,0,0,0-.676-7.732c-.7-4.047-2.487-5.628-6.517-6.245-1.283-.2-2.569-.38-3.859-.521-1.511-.169-2.986-.253-3-2.379s1.379-2.252,2.954-2.341q11.8-.665,23.584-1.382l.056-.544m1.619,34.357h.035c0,7.777.045,15.554-.023,23.331-.021,2.522.854,3.906,3.554,3.89,4.758-.03,9.546.387,14.266-.03,12.384-1.093,19.164-7.345,21.182-19.662a46,46,0,0,0,.258-12.628c-1.494-12.753-10.311-21.452-23.042-22.953a67.961,67.961,0,0,0-10.885-.117c-4.258.188-5.3,1.354-5.33,5.616-.052,7.519-.014,15.035-.014,22.554" transform="translate(-23716.041 -5439.994)" fill="#09102e"/>
    </g>
  </g>
</svg>
